<svg width="50" height="51" viewBox="0 0 50 51" fill="none" xmlns="http://www.w3.org/2000/svg">
<path d="M2.2471 16.84C5.91515 8.30472 14.7816 0.5 25 0.5C35.2184 0.5 44.0848 8.3048 47.7529 16.84H25H2.2471Z" fill="black" stroke="black"/>
<path d="M1.55498 17.34C0.550098 19.8814 0 22.6303 0 25.4999C0 28.3696 0.550098 31.1185 1.55498 33.6599H48.4451C49.45 31.1185 50 28.3696 50 25.4999C50 22.6303 49.45 19.8814 48.445 17.34H1.55498Z" fill="#D80027"/>
<path d="M1.5 33.6599C5.03232 42.5934 14.2509 50.9999 25 50.9999C35.7491 50.9999 44.9677 42.5934 48.5 33.6599H25H1.5Z" fill="#FFDA44"/>
</svg>
